<mxfile host="app.diagrams.net" agent="Mozilla/5.0 (Windows NT 10.0; Win64; x64) AppleWebKit/537.36 (KHTML, like Gecko) Chrome/132.0.0.0 Safari/537.36 Edg/132.0.0.0" version="26.0.11">
  <diagram name="Page-1" id="cFeoQijDTAQEJBhKreMC">
    <mxGraphModel dx="794" dy="458" grid="1" gridSize="10" guides="1" tooltips="1" connect="1" arrows="1" fold="1" page="1" pageScale="1" pageWidth="1100" pageHeight="850" math="0" shadow="0">
      <root>
        <mxCell id="0" />
        <mxCell id="1" parent="0" />
        <mxCell id="rhkZAJDFtUPsQrNhge91-1" value="Frontend" style="shape=umlLifeline;perimeter=lifelinePerimeter;whiteSpace=wrap;html=1;container=1;collapsible=0;recursiveResize=0;outlineConnect=0;rounded=1;shadow=0;comic=0;labelBackgroundColor=none;strokeWidth=1;fontFamily=Verdana;fontSize=12;align=center;" parent="1" vertex="1">
          <mxGeometry x="240" y="80" width="100" height="380" as="geometry" />
        </mxCell>
        <mxCell id="rhkZAJDFtUPsQrNhge91-2" value="" style="html=1;points=[];perimeter=orthogonalPerimeter;rounded=0;shadow=0;comic=0;labelBackgroundColor=none;strokeWidth=1;fontFamily=Verdana;fontSize=12;align=center;" parent="rhkZAJDFtUPsQrNhge91-1" vertex="1">
          <mxGeometry x="45" y="80" width="10" height="230" as="geometry" />
        </mxCell>
        <mxCell id="rhkZAJDFtUPsQrNhge91-3" value="Server" style="shape=umlLifeline;perimeter=lifelinePerimeter;whiteSpace=wrap;html=1;container=1;collapsible=0;recursiveResize=0;outlineConnect=0;rounded=1;shadow=0;comic=0;labelBackgroundColor=none;strokeWidth=1;fontFamily=Verdana;fontSize=12;align=center;" parent="1" vertex="1">
          <mxGeometry x="400" y="80" width="100" height="380" as="geometry" />
        </mxCell>
        <mxCell id="rhkZAJDFtUPsQrNhge91-4" value="" style="html=1;points=[];perimeter=orthogonalPerimeter;rounded=0;shadow=0;comic=0;labelBackgroundColor=none;strokeWidth=1;fontFamily=Verdana;fontSize=12;align=center;" parent="rhkZAJDFtUPsQrNhge91-3" vertex="1">
          <mxGeometry x="45" y="80" width="10" height="230" as="geometry" />
        </mxCell>
        <mxCell id="rhkZAJDFtUPsQrNhge91-5" value="Database" style="shape=umlLifeline;perimeter=lifelinePerimeter;whiteSpace=wrap;html=1;container=1;collapsible=0;recursiveResize=0;outlineConnect=0;rounded=1;shadow=0;comic=0;labelBackgroundColor=none;strokeWidth=1;fontFamily=Verdana;fontSize=12;align=center;" parent="1" vertex="1">
          <mxGeometry x="540" y="80" width="100" height="380" as="geometry" />
        </mxCell>
        <mxCell id="rhkZAJDFtUPsQrNhge91-6" value="" style="html=1;points=[];perimeter=orthogonalPerimeter;rounded=0;shadow=0;comic=0;labelBackgroundColor=none;strokeWidth=1;fontFamily=Verdana;fontSize=12;align=center;" parent="1" vertex="1">
          <mxGeometry x="585" y="218" width="10" height="180" as="geometry" />
        </mxCell>
        <mxCell id="rhkZAJDFtUPsQrNhge91-27" value="Mark item returned" style="html=1;verticalAlign=bottom;endArrow=block;entryX=0.3;entryY=0.223;labelBackgroundColor=none;fontFamily=Verdana;fontSize=12;edgeStyle=elbowEdgeStyle;elbow=vertical;entryDx=0;entryDy=0;entryPerimeter=0;" parent="1" edge="1">
          <mxGeometry x="0.2805" y="1" relative="1" as="geometry">
            <mxPoint x="77" y="210" as="sourcePoint" />
            <mxPoint x="285" y="211.28999999999996" as="targetPoint" />
            <mxPoint as="offset" />
          </mxGeometry>
        </mxCell>
        <mxCell id="rhkZAJDFtUPsQrNhge91-7" value="Update user chats" style="html=1;verticalAlign=bottom;endArrow=block;labelBackgroundColor=none;fontFamily=Verdana;fontSize=12;edgeStyle=elbowEdgeStyle;elbow=vertical;" parent="1" edge="1">
          <mxGeometry relative="1" as="geometry">
            <mxPoint x="455" y="245" as="sourcePoint" />
            <Array as="points">
              <mxPoint x="460" y="245" />
            </Array>
            <mxPoint x="585" y="245" as="targetPoint" />
          </mxGeometry>
        </mxCell>
        <mxCell id="rhkZAJDFtUPsQrNhge91-8" value="Mark item received" style="html=1;verticalAlign=bottom;endArrow=block;entryX=0;entryY=0;labelBackgroundColor=none;fontFamily=Verdana;fontSize=12;edgeStyle=elbowEdgeStyle;elbow=vertical;exitX=1;exitY=0.087;exitDx=0;exitDy=0;exitPerimeter=0;" parent="1" source="rhkZAJDFtUPsQrNhge91-11" edge="1">
          <mxGeometry relative="1" as="geometry">
            <mxPoint x="124.5" y="180" as="sourcePoint" />
            <mxPoint x="285" y="180" as="targetPoint" />
          </mxGeometry>
        </mxCell>
        <mxCell id="rhkZAJDFtUPsQrNhge91-9" value="http request" style="html=1;verticalAlign=bottom;endArrow=block;entryX=0;entryY=0;labelBackgroundColor=none;fontFamily=Verdana;fontSize=12;edgeStyle=elbowEdgeStyle;elbow=vertical;" parent="1" edge="1">
          <mxGeometry relative="1" as="geometry">
            <mxPoint x="295" y="211" as="sourcePoint" />
            <mxPoint x="445" y="211" as="targetPoint" />
          </mxGeometry>
        </mxCell>
        <mxCell id="rhkZAJDFtUPsQrNhge91-10" value="" style="group" parent="1" connectable="0" vertex="1">
          <mxGeometry x="100" y="80" width="60" height="310" as="geometry" />
        </mxCell>
        <mxCell id="rhkZAJDFtUPsQrNhge91-12" value="" style="shape=umlLifeline;perimeter=lifelinePerimeter;whiteSpace=wrap;html=1;container=1;dropTarget=0;collapsible=0;recursiveResize=0;outlineConnect=0;portConstraint=eastwest;newEdgeStyle={&quot;curved&quot;:0,&quot;rounded&quot;:0};participant=umlActor;" parent="rhkZAJDFtUPsQrNhge91-10" vertex="1">
          <mxGeometry x="15" y="-1" width="20" height="300" as="geometry" />
        </mxCell>
        <mxCell id="rhkZAJDFtUPsQrNhge91-11" value="" style="html=1;points=[];perimeter=orthogonalPerimeter;rounded=0;shadow=0;comic=0;labelBackgroundColor=none;strokeWidth=1;fontFamily=Verdana;fontSize=12;align=center;" parent="rhkZAJDFtUPsQrNhge91-10" vertex="1">
          <mxGeometry x="20" y="80" width="10" height="230" as="geometry" />
        </mxCell>
        <mxCell id="rhkZAJDFtUPsQrNhge91-13" value="Claimant" style="text;html=1;align=center;verticalAlign=middle;resizable=0;points=[];autosize=1;strokeColor=none;fillColor=none;" parent="rhkZAJDFtUPsQrNhge91-10" vertex="1">
          <mxGeometry x="-10" y="40" width="70" height="30" as="geometry" />
        </mxCell>
        <mxCell id="rhkZAJDFtUPsQrNhge91-14" value="" style="group" parent="1" connectable="0" vertex="1">
          <mxGeometry x="50" y="80" width="60" height="310" as="geometry" />
        </mxCell>
        <mxCell id="rhkZAJDFtUPsQrNhge91-16" value="" style="shape=umlLifeline;perimeter=lifelinePerimeter;whiteSpace=wrap;html=1;container=1;dropTarget=0;collapsible=0;recursiveResize=0;outlineConnect=0;portConstraint=eastwest;newEdgeStyle={&quot;curved&quot;:0,&quot;rounded&quot;:0};participant=umlActor;" parent="rhkZAJDFtUPsQrNhge91-14" vertex="1">
          <mxGeometry x="15" y="-1" width="20" height="300" as="geometry" />
        </mxCell>
        <mxCell id="rhkZAJDFtUPsQrNhge91-15" value="" style="html=1;points=[];perimeter=orthogonalPerimeter;rounded=0;shadow=0;comic=0;labelBackgroundColor=none;strokeWidth=1;fontFamily=Verdana;fontSize=12;align=center;" parent="rhkZAJDFtUPsQrNhge91-14" vertex="1">
          <mxGeometry x="20" y="80" width="10" height="230" as="geometry" />
        </mxCell>
        <mxCell id="rhkZAJDFtUPsQrNhge91-17" value="Finder" style="text;html=1;align=center;verticalAlign=middle;resizable=0;points=[];autosize=1;strokeColor=none;fillColor=none;" parent="rhkZAJDFtUPsQrNhge91-14" vertex="1">
          <mxGeometry x="-5" y="40" width="60" height="30" as="geometry" />
        </mxCell>
        <mxCell id="rhkZAJDFtUPsQrNhge91-20" value="" style="endArrow=none;dashed=1;html=1;dashPattern=1 3;strokeWidth=2;rounded=0;exitX=0;exitY=0.497;exitDx=0;exitDy=0;exitPerimeter=0;entryX=0.998;entryY=0.503;entryDx=0;entryDy=0;entryPerimeter=0;" parent="1" source="rhkZAJDFtUPsQrNhge91-19" target="rhkZAJDFtUPsQrNhge91-19" edge="1">
          <mxGeometry width="50" height="50" relative="1" as="geometry">
            <mxPoint x="380" y="310" as="sourcePoint" />
            <mxPoint x="430" y="260" as="targetPoint" />
          </mxGeometry>
        </mxCell>
        <mxCell id="rhkZAJDFtUPsQrNhge91-21" value="[Update Successful]" style="text;strokeColor=none;align=center;fillColor=none;html=1;verticalAlign=middle;whiteSpace=wrap;rounded=0;" parent="1" vertex="1">
          <mxGeometry x="140" y="293" width="120" height="30" as="geometry" />
        </mxCell>
        <mxCell id="rhkZAJDFtUPsQrNhge91-22" value="" style="endArrow=block;dashed=1;endFill=0;endSize=12;html=1;rounded=0;entryX=1.167;entryY=0.643;entryDx=0;entryDy=0;entryPerimeter=0;" parent="1" edge="1">
          <mxGeometry width="160" relative="1" as="geometry">
            <mxPoint x="446" y="308" as="sourcePoint" />
            <mxPoint x="294.6700000000001" y="307.89" as="targetPoint" />
          </mxGeometry>
        </mxCell>
        <mxCell id="rhkZAJDFtUPsQrNhge91-23" value="Success Message" style="edgeLabel;html=1;align=center;verticalAlign=middle;resizable=0;points=[];" parent="rhkZAJDFtUPsQrNhge91-22" connectable="0" vertex="1">
          <mxGeometry x="-0.0177" y="1" relative="1" as="geometry">
            <mxPoint y="-9" as="offset" />
          </mxGeometry>
        </mxCell>
        <mxCell id="rhkZAJDFtUPsQrNhge91-24" value="[Update Failed]" style="text;strokeColor=none;align=center;fillColor=none;html=1;verticalAlign=middle;whiteSpace=wrap;rounded=0;" parent="1" vertex="1">
          <mxGeometry x="140" y="353" width="120" height="30" as="geometry" />
        </mxCell>
        <mxCell id="rhkZAJDFtUPsQrNhge91-25" value="" style="endArrow=block;dashed=1;endFill=0;endSize=12;html=1;rounded=0;" parent="1" edge="1">
          <mxGeometry width="160" relative="1" as="geometry">
            <mxPoint x="443" y="368" as="sourcePoint" />
            <mxPoint x="295" y="368" as="targetPoint" />
          </mxGeometry>
        </mxCell>
        <mxCell id="rhkZAJDFtUPsQrNhge91-26" value="Error Message" style="edgeLabel;html=1;align=center;verticalAlign=middle;resizable=0;points=[];" parent="rhkZAJDFtUPsQrNhge91-25" connectable="0" vertex="1">
          <mxGeometry x="-0.0177" y="1" relative="1" as="geometry">
            <mxPoint y="-9" as="offset" />
          </mxGeometry>
        </mxCell>
        <mxCell id="rhkZAJDFtUPsQrNhge91-19" value="alt" style="shape=umlFrame;whiteSpace=wrap;html=1;pointerEvents=0;" parent="1" vertex="1">
          <mxGeometry x="40" y="274" width="580" height="130" as="geometry" />
        </mxCell>
        <mxCell id="rhkZAJDFtUPsQrNhge91-28" value="http request" style="html=1;verticalAlign=bottom;endArrow=block;entryX=0;entryY=0;labelBackgroundColor=none;fontFamily=Verdana;fontSize=12;edgeStyle=elbowEdgeStyle;elbow=vertical;" parent="1" edge="1">
          <mxGeometry relative="1" as="geometry">
            <mxPoint x="295" y="180" as="sourcePoint" />
            <mxPoint x="445" y="180" as="targetPoint" />
          </mxGeometry>
        </mxCell>
      </root>
    </mxGraphModel>
  </diagram>
</mxfile>
